# xmcd
#
# Track frame offsets:
#	300
#	21796
#	43284
#	65034
#	86909
#	103461
#	121170
#	146334
#	158434
#	182784
#	208264
#	218971
#	233909
#	247209
#	266296
#
# Disc length: 3765 seconds
#
# Revision: 0
# Processed by: cddbd v1.5.2PL0 Copyright (c) Steve Scherf et al.
# Submitted via: audiograbber 1.83.01
#
DISCID=e60eb10f
DTITLE=Various Artist - Blues Corner 2 - CD 2
DYEAR=1900
DGENRE=
TTITLE0=Alannah Myles - Black Velvet (LP Version)
TTITLE1=Marla Glen - Love And Respect
TTITLE2=The Paul Butterfield Blues Band - New Walkin' Blues (LP Version)
TTITLE3=Keb' Mo' - Slow Down (Album Version)
TTITLE4=Taj Mahal - Good Morning Little School Girl (Album Version)
TTITLE5=Johnny Winter - Stranger (Album Version)
TTITLE6=Snowy White - Peace On Earth
TTITLE7=Chicken Shack - Tears In The Wind (Album Version)
TTITLE8=The Fabulous Thunderbirds - Feelin' Good (Album Version)
TTITLE9=Nathan Cavaleri Band - Back To The Blues (Album Version)
TTITLE10=Steve Earle - Continental Trailways Blues
TTITLE11=Billie Holiday, Accompanied By Eddie Heywood and His Orchestra - Georgia
TTITLE11=On My Mind (Album Version)
TTITLE12=Bessie Smith - Eddie Lang, Guitar - Kitchen Man (78 rpm Version)
TTITLE13=Big Brother and The Holding Company - Piece Of My Heart (Album Version)
TTITLE14=Leon Russell - Watching The River Flow
EXTD=
EXTT0=
EXTT1=
EXTT2=
EXTT3=
EXTT4=
EXTT5=
EXTT6=
EXTT7=
EXTT8=
EXTT9=
EXTT10=
EXTT11=
EXTT12=
EXTT13=
EXTT14=
PLAYORDER=
